<?xml version="1.0" encoding="UTF-8"?>
<svg width="269px" height="58px" viewBox="0 0 269 58" version="1.1" xmlns="http://www.w3.org/2000/svg" xmlns:xlink="http://www.w3.org/1999/xlink">
    <!-- Generator: Sketch 53 (72520) - https://sketchapp.com -->
    <title>logo</title>
    <desc>Created with Sketch.</desc>
    <g id="Pages" stroke="none" stroke-width="1" fill="none" fill-rule="evenodd">
        <g id="Styleguide-basic" transform="translate(-80.000000, -82.000000)" fill="#ffffff">
            <g id="logo/black" transform="translate(80.000000, 82.000000)">
                <g id="Group-38">
                    <path d="M126.213577,33.0442045 L126.213577,32.9926753 C126.563801,32.9926753 127.113155,32.8931104 127.761201,32.8442013 C129.408389,31.3961429 143.935262,18.8684286 148.475947,12.7277175 C147.578116,12.8779383 138.593691,14.8255682 135.298441,14.175776 C132.85386,13.7757695 132.154285,5.34157143 133.551688,8.78616883 C134.350827,10.5818312 147.479425,9.08311688 148.675951,9.28312013 C149.625311,9.43421429 151.620977,12.2290195 151.869889,14.8255682 C151.071623,17.1216753 142.786772,25.8563149 134.000603,32.2450649 C138.693256,31.8459318 144.034827,31.8957143 145.481139,33.3437727 C147.827902,36.2372695 146.778103,39.2844805 146.030493,39.0329481 C145.632233,39.0329481 146.878542,37.6853279 143.385035,36.4870552 C141.139584,35.688789 133.751691,35.3394383 129.209259,35.3394383 C128.261645,35.8896656 127.262503,36.4381461 126.313142,36.8861883 C125.365529,37.2861948 122.769853,33.6913766 126.213577,33.0442045" id="Fill-2" fill-rule="nonzero"></path>
                    <path d="M98.4020341,36.873699 C97.8020244,36.873699 93.8604756,34.3278062 94.0098231,31.5819101 C94.2089529,26.8412218 100.249226,19.852462 101.046619,19.852462 C102.793372,19.852462 104.540125,21.2000821 103.89208,21.849001 C102.045761,23.6961925 97.9522451,31.9810432 98.8011672,32.9810594 C100.050096,34.0273646 109.632784,22.8455237 107.236239,19.0541958 C106.987326,18.6550627 106.687758,18.5546244 106.93667,18.2052737 C107.73581,17.3074425 111.181281,19.6524588 111.181281,21.9992218 C111.181281,28.3390627 101.946196,37.0737023 98.4020341,36.873699" id="Fill-4" fill-rule="nonzero"></path>
                    <path d="M166.141998,11.3662981 C166.141998,13.3130545 161.699131,16.1087331 160.851083,16.4074279 C159.354989,16.806561 159.154112,15.3095935 159.403898,15.0598078 C161.051086,13.3130545 163.046752,11.0178208 163.347193,10.0186779 C163.748073,8.42127208 166.141998,9.61954481 166.141998,11.3662981 M160.802174,22.4974831 C156.260615,21.4992136 149.620333,32.2312656 151.616872,32.2312656 C152.964492,32.2312656 160.60217,22.6974864 160.802174,22.4974831 M167.888752,27.9386195 C167.289615,28.936889 161.351528,37.1221747 158.754979,36.9239182 C156.956696,36.7736974 155.110378,34.6775935 154.961031,32.7299636 C154.312112,33.5291032 152.515576,36.7239149 151.019482,36.8732623 C149.470985,37.1728305 146.375739,34.5282461 146.226391,32.3814864 C146.028135,28.037311 152.515576,19.153324 158.705196,19.153324 C160.003034,19.153324 161.699131,20.3018143 162.099138,21.2494279 C163.94633,21.6476877 165.542862,22.9463987 165.144602,23.496626 C163.94633,25.0940318 159.304333,32.0819182 160.101726,32.4810513 C160.502606,32.7299636 163.796109,29.9849409 166.742008,26.7910026 C169.287901,23.8459766 169.087024,25.542074 167.888752,27.9386195" id="Fill-6" fill-rule="nonzero"></path>
                    <path d="M120.914452,22.0980006 C122.162507,22.0980006 118.167682,29.085887 115.472442,27.9382701 C115.873322,26.7408708 119.416611,22.2482214 120.914452,22.0980006 M127.004507,26.2902084 C125.007095,28.6867539 118.467251,35.2265981 115.522225,33.2291857 C114.174605,32.2815721 114.425264,30.5837279 114.874179,29.1863253 C115.222656,29.7854617 116.869845,31.0326435 118.068118,30.8841695 C121.762501,30.6335104 124.358176,25.7923838 124.507523,23.8456273 C124.656871,21.5984292 121.163364,18.7049325 118.968569,19.0036273 C115.42266,19.4027604 109.932614,25.642163 109.932614,30.9330786 C109.932614,33.927887 114.07504,36.9244422 115.873322,36.9244422 C120.564228,37.0729162 126.055147,30.1356857 128.201033,27.4395721 C129.150394,26.0910786 128.900608,24.1443221 127.004507,26.2902084" id="Fill-8" fill-rule="nonzero"></path>
                    <path d="M176.034037,21.7998299 C173.5388,26.2907325 170.842686,31.5336123 171.392913,32.7790474 C171.792046,33.8279727 178.081231,26.9405247 178.678621,26.3405149 C180.275154,24.7431091 180.876037,26.0907292 179.227975,28.2890182 C178.629712,29.2855409 172.639222,37.1730052 170.144858,36.9730019 C168.6968,36.8236545 166.300254,34.8271156 166.150907,32.6297 C166.000686,30.1851188 168.097663,25.9911643 170.641809,21.9989597 C169.844417,22.0487422 169.344845,21.9989597 169.095933,21.9491773 C168.446141,21.7998299 168.148319,20.1508948 170.641809,19.501976 L172.488128,19.1534987 C174.287283,16.5071675 175.732722,14.6110669 177.081215,12.8643136 C178.827969,12.2153948 181.124949,13.3123558 180.475157,14.3612812 C180.127553,14.8101968 179.32754,16.2084727 177.880355,18.6539273 C178.678621,18.6539273 178.827969,18.7045831 179.428852,18.7543656 C180.275154,18.7543656 181.175605,21.0993818 181.026257,21.749174 C180.975602,21.9989597 180.825381,22.0487422 180.475157,21.9989597 C179.279504,21.8496123 177.682098,21.7998299 176.034037,21.7998299" id="Fill-10" fill-rule="nonzero"></path>
                    <path d="M185.071389,26.1906435 C184.573564,27.8876143 184.522908,30.1845948 186.917707,30.3348156 C189.06534,27.6387019 190.364924,22.7967019 189.266217,22.0980006 C188.067944,21.4490818 185.870528,23.6464974 185.071389,26.1906435 M185.37183,32.381137 C185.071389,32.2317896 183.174415,31.1322084 182.427678,28.937413 C181.377879,29.9854649 181.080057,32.7296143 181.577882,33.3794065 C182.377022,34.3270201 184.22334,33.7287571 185.37183,32.381137 M196.053226,28.3382766 C194.45582,30.7330753 191.510794,32.5304844 190.313395,32.9296175 C188.166635,35.5750753 185.122918,37.3218286 182.677463,37.1226987 C180.978746,36.9733513 177.634587,34.1278903 177.784807,31.5828708 C177.934155,27.9382701 180.031132,24.5434552 181.72723,23.0962701 C182.677463,22.2980039 183.473983,22.2482214 183.874863,22.0980006 C184.723785,21.0001662 186.768359,19.0534097 189.214687,19.4525429 C191.061006,19.851676 193.807775,22.2482214 193.657554,24.5434552 C193.657554,25.7923838 192.858415,28.3382766 192.211243,29.6343675 C192.909944,29.3356727 195.554528,26.7408708 196.702145,25.1932474 C198.350207,23.8456273 196.852366,26.9906565 196.053226,28.3382766" id="Fill-12" fill-rule="nonzero"></path>
                    <path d="M202.306952,28.1890166 C202.358481,28.1890166 202.406517,28.1383607 202.458046,28.1383607 C205.702641,27.7383542 209.346368,23.1959224 209.196147,22.1487438 C208.895706,21.4491692 205.55242,24.1444094 202.306952,28.1890166 M215.7849,28.4877114 C213.788361,31.1322958 209.245056,36.7734354 205.951553,36.7734354 C203.854576,36.7734354 200.908676,34.3271075 199.710404,31.9314354 C198.962793,33.2799289 198.314748,34.6782049 197.864085,36.0738607 C197.864085,36.2747373 197.814303,37.0223477 196.915598,37.0223477 C195.519943,36.8730003 193.822098,34.727114 193.822098,33.4292763 C193.622095,28.837062 202.80565,14.6106302 205.15416,12.6647471 C205.702641,12.265614 208.845923,13.5119224 208.297443,14.3617179 C206.651128,17.107614 204.75328,20.1006756 203.006527,23.496364 C205.601329,20.7006854 207.796998,19.5024127 209.145491,19.5521951 C211.141157,19.5521951 213.189225,23.2954873 212.689654,24.8431107 C211.892261,27.3392211 208.248533,31.1829516 204.2048,31.4336107 C205.054595,32.1812211 206.000462,32.6799192 207.050261,32.5305718 C209.845939,32.3812244 214.086183,27.6387893 215.284456,26.4405166 C216.734261,24.8431107 217.382306,26.3409516 215.7849,28.4877114" id="Fill-14" fill-rule="nonzero"></path>
                    <path d="M72.0258854,12.0818555 C71.8494633,12.0373133 71.674788,12.212862 71.674788,12.3884107 C71.8494633,17.5588003 64.532314,23.9562841 62.2545477,29.3022224 C62.2493075,29.3022224 62.2449406,29.3039692 62.2397003,29.3048425 C61.8955899,30.154638 61.6571581,31.0236477 61.5104308,31.9144919 C61.5261516,31.9057581 61.5366321,31.896151 61.5523529,31.8874172 C61.0711224,35.8307127 64.0947523,36.8385893 64.9716224,36.9250536 C65.1026289,36.9250536 65.1899666,36.7940471 65.1462977,36.6630406 C59.7130218,33.5136445 76.3980088,21.2112614 76.6460477,15.0609432 C76.746486,12.5683263 73.1647685,12.1691932 72.0258854,12.0818555" id="Fill-16" fill-rule="nonzero"></path>
                    <path d="M199.405333,50.5790744 C200.054252,44.6645679 210.333021,42.005136 210.333021,42.005136 C212.961012,41.357964 215.432668,41.1369997 217.618729,41.2400581 C217.349729,41.6811133 217.073742,42.1178016 216.789895,42.5492497 C216.726138,42.642701 216.663255,42.744886 216.599499,42.8392107 C216.513034,42.9641036 216.424823,43.0855029 216.340106,43.2095224 C215.627431,44.2191458 214.916502,45.1152302 214.175879,45.8715744 C214.101642,45.9466847 214.027405,46.0217951 213.953168,46.093412 C213.670194,46.3711458 213.379359,46.610451 213.085905,46.8445159 C213.043982,46.8759575 213.00206,46.9170062 212.961012,46.9475744 C212.965379,46.9440808 212.967999,46.9449542 212.974112,46.9414607 C212.913849,46.9886231 212.855333,47.0515062 212.794197,47.0969218 C200.609719,55.9948828 199.405333,50.5790744 199.405333,50.5790744 M259.763518,0.740710714 C263.264012,16.7890062 252.175622,32.1377269 225.492219,37.5203471 C229.452982,30.2564737 231.446028,23.8651036 231.873109,22.5480516 C232.522028,21.1986847 229.028521,20.3523828 228.627642,21.150649 C227.080018,23.4965386 219.893002,34.3281555 218.346252,32.9814088 C217.296453,32.3298698 221.390843,24.2948049 223.438038,21.8484769 C223.986518,21.150649 222.388239,19.8510646 220.592577,19.8510646 C220.043223,19.8510646 214.20208,26.7411328 213.554034,31.5831328 C213.154901,34.3281555 216.49906,36.8242659 217.147106,36.8242659 C217.996901,36.8740484 219.79431,35.5264282 221.589973,33.7281458 C221.359401,34.0993308 220.475544,36.066175 219.223122,38.4146847 C214.197713,38.1797464 209.651788,39.5081523 209.651788,39.5081523 C204.955642,40.9204023 202.207125,42.5466295 200.345086,44.337925 C197.171236,47.410464 197.196564,50.5467594 197.196564,50.5467594 C197.462944,55.6394185 199.825427,57.001886 201.860395,57.4542951 C211.367973,59.5774737 218.616999,50.3266685 223.300918,41.2767399 C223.426684,41.0749899 223.548956,40.8758601 223.670356,40.6741101 C236.974502,39.5264932 261.055242,31.2608568 267.287658,12.5871912 C269.989885,4.48749643 265.974099,1.80273669 259.763518,0.740710714" id="Fill-18" fill-rule="nonzero"></path>
                    <path d="M93.181338,14.9203295 C90.9315198,8.94556006 85.3558834,7.00229708 79.6413802,5.58655357 C73.0325393,3.95071916 64.5241042,3.11489773 48.2880328,5.47912825 C33.3436854,7.65645617 19.5120198,13.1735763 6.86727305,21.5047159 C3.46459773,23.7458003 0.439221104,26.3292484 0.269786039,30.8489724 C0.233104221,31.8053198 0.164980844,33.2001023 0.716081494,33.6429042 C1.84186396,34.5520893 2.78423734,33.3564367 3.65499383,32.6201802 C14.0324549,23.8217841 25.7776237,17.4111997 38.6459549,13.1630958 C51.8741172,8.79708604 65.3852536,6.5306737 79.2981432,9.55430357 C83.3410036,10.4337938 88.1061464,12.2355698 89.1655523,16.5692646 C91.5219224,26.2113425 83.9200523,31.5336997 77.8789062,35.124151 C71.4429938,38.9495406 64.4629679,40.7583036 57.0121919,40.2613523 C54.8750393,40.1189919 49.7395847,39.0229042 50.5596854,36.1110666 C54.364114,22.6051705 89.0354192,27.1345016 86.5690036,18.810349 C87.0432471,20.8732646 84.8336042,21.3745828 83.3776854,21.5903068 C78.414286,22.3248166 70.1128412,23.0977549 61.2847503,25.6218133 C57.5432049,26.6916997 44.9351399,29.5275536 45.8661594,37.7643685 C46.1910555,40.6403977 48.548299,42.3609497 51.412101,42.7827906 C76.5373997,46.4859075 98.4504192,28.9126964 93.181338,14.9203295" id="Fill-20" fill-rule="nonzero"></path>
                    <polygon id="Fill-22" fill-rule="nonzero" points="105.447825 57.6641675 103.862647 57.6641675 100.542069 54.3235019 100.542069 57.6641675 99.2468513 57.6641675 99.2468513 50.5199468 100.542069 50.5199468 100.542069 53.7199987 103.73164 50.5199468 105.286251 50.5199468 101.815452 53.9523169"></polygon>
                    <path d="M116.394029,56.039425 C116.761721,55.5843958 116.946003,54.9311101 116.946003,54.0830614 C116.946003,53.2402529 116.761721,52.5930808 116.394029,52.1406718 C116.025464,51.6900094 115.510172,51.4646782 114.848153,51.4646782 C114.187006,51.4646782 113.671714,51.689136 113.304023,52.1354315 C112.935458,52.5843471 112.751175,53.2323925 112.751175,54.0830614 C112.751175,54.9311101 112.935458,55.5843958 113.304023,56.039425 C113.671714,56.4944542 114.187006,56.7197854 114.848153,56.7197854 C115.510172,56.7197854 116.025464,56.4944542 116.394029,56.039425 M113.048123,57.3075679 C112.536325,57.0097464 112.141558,56.5861588 111.863825,56.0333114 C111.586091,55.4813373 111.447224,54.8306718 111.447224,54.0830614 C111.447224,53.3398179 111.584344,52.6935192 111.859458,52.1406718 C112.132825,51.5886977 112.525844,51.1668568 113.037643,50.8716555 C113.549442,50.578201 114.152945,50.4297269 114.848153,50.4297269 C115.54336,50.4297269 116.147737,50.578201 116.659536,50.8716555 C117.171334,51.1668568 117.562607,51.5886977 117.832481,52.1406718 C118.104101,52.6935192 118.239474,53.3398179 118.239474,54.0830614 C118.239474,54.8306718 118.102354,55.4813373 117.828987,56.0333114 C117.553873,56.5861588 117.162601,57.0097464 116.654295,57.3075679 C116.14599,57.6062627 115.54336,57.7547367 114.848153,57.7547367 C114.159058,57.7547367 113.559922,57.6062627 113.048123,57.3075679" id="Fill-24" fill-rule="nonzero"></path>
                    <polygon id="Fill-26" fill-rule="nonzero" points="130.629894 50.5210821 131.944325 50.5210821 128.763488 57.6644295 127.710195 57.6644295 124.530231 50.5210821 125.874358 50.5210821 128.251689 56.0382023"></polygon>
                    <path d="M141.355657,49.9086705 L140.542544,49.9086705 L141.576621,48.3540601 L142.791488,48.3540601 L141.355657,49.9086705 Z M139.649953,54.9847354 L142.27969,54.9847354 L140.965258,51.9261705 L139.649953,54.9847354 Z M143.422066,57.6642549 L142.711138,55.9891185 L139.220251,55.9891185 L138.497095,57.6642549 L137.191397,57.6642549 L140.423764,50.5200341 L141.477056,50.5200341 L144.718157,57.6642549 L143.422066,57.6642549 Z" id="Fill-28" fill-rule="nonzero"></path>
                    <path d="M154.388096,53.6913519 C154.87806,53.6913519 155.238765,53.6005208 155.471956,53.4197318 C155.706894,53.2389429 155.823927,52.965576 155.823927,52.5978844 C155.823927,52.2363065 155.708641,51.9664331 155.477196,51.7891377 C155.245752,51.6118422 154.8833,51.5245045 154.388096,51.5245045 L152.772349,51.5245045 L152.772349,53.6913519 L154.388096,53.6913519 Z M154.919109,48.3541474 L155.913011,48.3541474 L154.629148,49.9087578 L153.876297,49.9087578 L152.59156,48.3541474 L153.585463,48.3541474 L154.259709,49.2869136 L154.919109,48.3541474 Z M157.389891,57.6643422 L156.02393,57.6643422 L155.110378,55.2861377 C155.030028,55.0651734 154.907755,54.9105857 154.739193,54.8258682 C154.572378,54.7367838 154.354907,54.6939883 154.086781,54.6939883 L152.794183,54.6939883 L152.794183,57.6643422 L151.508573,57.6643422 L151.508573,50.5201214 L154.568885,50.5201214 C155.379378,50.5201214 155.994235,50.6965435 156.41433,51.0528812 C156.837044,51.4074721 157.047528,51.9157773 157.047528,52.5777968 C157.047528,53.053787 156.920888,53.4546669 156.671102,53.7856766 C156.41957,54.1166864 156.064106,54.3542448 155.603836,54.4939851 C156.02393,54.5813227 156.329612,54.8739039 156.516515,55.3769688 L157.389891,57.6643422 Z" id="Fill-30" fill-rule="nonzero"></path>
                    <path d="M169.237158,56.039425 C169.604849,55.5843958 169.790005,54.9311101 169.790005,54.0830614 C169.790005,53.2402529 169.604849,52.5930808 169.237158,52.1406718 C168.868593,51.6900094 168.353301,51.4646782 167.691281,51.4646782 C167.031008,51.4646782 166.515716,51.689136 166.147151,52.1354315 C165.778586,52.5843471 165.594304,53.2323925 165.594304,54.0830614 C165.594304,54.9311101 165.778586,55.5843958 166.147151,56.039425 C166.515716,56.4944542 167.031008,56.7197854 167.691281,56.7197854 C168.353301,56.7197854 168.868593,56.4944542 169.237158,56.039425 M165.891252,57.3075679 C165.379453,57.0097464 164.984687,56.5861588 164.706953,56.0333114 C164.429219,55.4813373 164.290353,54.8306718 164.290353,54.0830614 C164.290353,53.3398179 164.427473,52.6935192 164.70346,52.1406718 C164.975953,51.5886977 165.368973,51.1668568 165.880771,50.8716555 C166.39257,50.578201 166.99782,50.4297269 167.691281,50.4297269 C168.386489,50.4297269 168.991739,50.578201 169.503538,50.8716555 C170.015336,51.1668568 170.405736,51.5886977 170.675609,52.1406718 C170.947229,52.6935192 171.082603,53.3398179 171.082603,54.0830614 C171.082603,54.8306718 170.945482,55.4813373 170.672989,56.0333114 C170.397002,56.5861588 170.005729,57.0097464 169.497424,57.3075679 C168.989992,57.6062627 168.386489,57.7547367 167.691281,57.7547367 C167.002187,57.7547367 166.403051,57.6062627 165.891252,57.3075679" id="Fill-32" fill-rule="nonzero"></path>
                    <polygon id="Fill-34" fill-rule="nonzero" points="183.473022 50.5210821 184.787454 50.5210821 181.606616 57.6644295 180.553324 57.6644295 177.374233 50.5210821 178.71836 50.5210821 181.094818 56.0382023"></polygon>
                    <path d="M123.740611,10.5828792 C123.519647,11.3208825 122.275959,12.8370643 121.01655,14.2292266 L120.914365,14.311324 L120.451475,13.713061 C120.215663,13.3593435 119.285517,11.9636877 118.783326,11.2335448 C118.20515,10.3942299 116.689842,10.5322234 116.196384,10.8256779 C115.702926,11.1182591 115.878475,11.5811487 116.047037,11.7811519 C116.59377,12.4274506 117.039193,13.0414344 117.039193,13.0414344 L117.0619,13.0466747 C118.025235,14.3008435 119.859326,16.4345026 120.114352,16.5078662 C120.61829,16.5672558 120.8148,16.5742429 121.468085,16.3672526 C121.473326,16.3655058 121.476819,16.3663792 121.482059,16.3655058 C121.543196,16.3436714 121.631407,16.3026227 121.730098,16.254587 C121.83403,16.2065513 121.933595,16.1532753 122.029667,16.0956325 C123.373793,15.3471487 126.270783,13.2999539 126.270783,11.802113 C126.270783,10.2213013 124.103063,9.13744091 123.740611,10.5828792" id="Fill-36" fill-rule="nonzero"></path>
                </g>
            </g>
        </g>
    </g>
</svg>